<?xml version="1.0" encoding="utf-8"?>
<!-- Generator: Adobe Illustrator 23.0.3, SVG Export Plug-In . SVG Version: 6.00 Build 0)  -->
<svg version="1.1" id="Layer_1" xmlns="http://www.w3.org/2000/svg" xmlns:xlink="http://www.w3.org/1999/xlink" x="0px" y="0px"
	 viewBox="0 0 103 103" style="enable-background:new 0 0 103 103;" xml:space="preserve">
<style type="text/css">
	.st0{fill-rule:evenodd;clip-rule:evenodd;fill:#FFFFFF;}
</style>
<g>
	<path class="st0" d="M4.1,0.64h4h50.53c21.97,0,39.95,17.98,39.95,39.95v0.38c0,21.97-17.98,39.95-39.95,39.95H32.07v22.05h-4
		V80.93h-4v22.05h-3.99V80.93h-4v22.05h-3.99V80.93H8.09v22.05h-4V80.93v-1.67v-2.33h54.53c19.77,0,35.96-16.19,35.96-35.96V40.6
		c0-19.77-16.19-35.96-35.96-35.96H8.09v48.33h3.99V12.63v-4h3.99h42.54c17.56,0,31.96,14.4,31.96,31.96v0.38
		c0,17.56-14.4,31.96-31.96,31.96H4.1v-4h54.53c15.36,0,27.97-12.61,27.97-27.97V40.6c0-15.36-12.61-27.97-27.97-27.97H16.08v40.34
		h4V20.62v-4h3.99h34.55c13.15,0,23.97,10.82,23.97,23.97v0.38c0,13.15-10.82,23.97-23.97,23.97H4.1v-3.99h54.53
		c10.95,0,19.98-9.03,19.98-19.98V40.6c0-10.95-9.03-19.98-19.98-19.98H24.07v32.34h4V28.61v-3.99h4h26.56
		c8.74,0,15.98,7.24,15.98,15.98v0.38c0,8.74-7.24,15.98-15.98,15.98H4.1v-3.01v-0.98V4.64V0.64L4.1,0.64z M32.07,28.61v24.35h26.56
		c6.54,0,11.99-5.45,11.99-11.99V40.6c0-6.54-5.45-11.99-11.99-11.99H32.07z"/>
</g>
</svg>
